<svg width="1109" height="205" viewBox="0 0 1109 205" fill="none" xmlns="http://www.w3.org/2000/svg">
<mask id="mask0" mask-type="alpha" maskUnits="userSpaceOnUse" x="0" y="0" width="1109" height="205">
<rect width="1109" height="205" rx="16" fill="#103964"/>
</mask>
<g mask="url(#mask0)">
<rect y="-5" width="99.7811" height="24.7245" rx="12.3623" fill="white" fill-opacity="0.02"/>
<rect y="27.6719" width="37.9698" height="24.7245" rx="12.3623" fill="white" fill-opacity="0.02"/>
<rect x="42.3848" y="27.6719" width="73.2906" height="24.7245" rx="12.3623" fill="white" fill-opacity="0.02"/>
<rect x="109.494" y="-5" width="73.2906" height="24.7245" rx="12.3623" fill="white" fill-opacity="0.02"/>
<rect x="160.709" y="27.6719" width="73.2906" height="24.7245" rx="12.3623" fill="white" fill-opacity="0.02"/>
<rect x="120.09" y="27.6719" width="36.2038" height="24.7245" rx="12.3623" fill="white" fill-opacity="0.02"/>
<rect x="192.498" y="-5" width="36.2038" height="24.7245" rx="12.3623" fill="white" fill-opacity="0.02"/>
<rect y="70.0566" width="99.7811" height="24.7245" rx="12.3623" fill="white" fill-opacity="0.02"/>
<rect y="102.729" width="37.9698" height="24.7245" rx="12.3623" fill="white" fill-opacity="0.02"/>
<rect x="42.3848" y="102.729" width="73.2906" height="24.7245" rx="12.3623" fill="white" fill-opacity="0.02"/>
<rect x="109.494" y="70.0566" width="73.2906" height="24.7245" rx="12.3623" fill="white" fill-opacity="0.02"/>
<rect x="160.709" y="102.729" width="73.2906" height="24.7245" rx="12.3623" fill="white" fill-opacity="0.02"/>
<rect x="120.09" y="102.729" width="36.2038" height="24.7245" rx="12.3623" fill="white" fill-opacity="0.02"/>
<rect x="192.498" y="70.0566" width="36.2038" height="24.7245" rx="12.3623" fill="white" fill-opacity="0.02"/>
<rect y="145.113" width="99.7811" height="24.7245" rx="12.3623" fill="white" fill-opacity="0.02"/>
<rect y="177.785" width="37.9698" height="24.7245" rx="12.3623" fill="white" fill-opacity="0.02"/>
<rect x="42.3848" y="177.785" width="73.2906" height="24.7245" rx="12.3623" fill="white" fill-opacity="0.02"/>
<rect x="109.494" y="145.113" width="73.2906" height="24.7245" rx="12.3623" fill="white" fill-opacity="0.02"/>
<rect x="160.709" y="177.785" width="73.2906" height="24.7245" rx="12.3623" fill="white" fill-opacity="0.02"/>
<rect x="120.09" y="177.785" width="36.2038" height="24.7245" rx="12.3623" fill="white" fill-opacity="0.02"/>
<rect x="192.498" y="145.113" width="36.2038" height="24.7245" rx="12.3623" fill="white" fill-opacity="0.02"/>
</g>
</svg>
